<svg width="24" height="25" viewBox="0 0 24 25" fill="none" xmlns="http://www.w3.org/2000/svg">
<path fill-rule="evenodd" clip-rule="evenodd" d="M21 11.8098C21 11.5337 20.7761 11.3098 20.5 11.3098L4.5 11.3098C4.22386 11.3098 4 11.5337 4 11.8098C4 12.086 4.22386 12.3098 4.5 12.3098L20.5 12.3098C20.7761 12.3098 21 12.086 21 11.8098Z" fill="black"/>
<path fill-rule="evenodd" clip-rule="evenodd" d="M8.35355 7.95626C8.15829 7.761 7.84171 7.761 7.64645 7.95626L3.79289 11.8098L7.64645 15.6634C7.84171 15.8586 8.15829 15.8586 8.35355 15.6634C8.54882 15.4681 8.54882 15.1515 8.35355 14.9563L5.20711 11.8098L8.35355 8.66337C8.54882 8.46811 8.54882 8.15152 8.35355 7.95626Z" fill="black"/>
</svg>
