<svg width="24" height="25" viewBox="0 0 24 25" fill="none" xmlns="http://www.w3.org/2000/svg">
<path d="M8 13.3098L12.2277 16.6919C12.6556 17.0343 13.2793 16.9684 13.6263 16.5443L22 6.30981" stroke="#F96815" stroke-linecap="round"/>
<path fill-rule="evenodd" clip-rule="evenodd" d="M10.8051 12.2265L15.387 6.62645C15.5619 6.41273 15.5304 6.09771 15.3166 5.92285C15.1029 5.74799 14.7879 5.77949 14.6131 5.99321L10.0369 11.5863L10.8051 12.2265ZM7.63882 16.0965L6.87057 15.4562L6.2201 16.2513C6.05043 16.4586 5.74746 16.4954 5.53312 16.3346L2.30003 13.9098C2.07912 13.7441 1.76571 13.7889 1.60003 14.0098C1.43434 14.2307 1.47912 14.5441 1.70003 14.7098L4.93312 17.1346C5.57616 17.6169 6.48506 17.5066 6.99405 16.8845L7.63882 16.0965Z" fill="#F96815"/>
</svg>
