<svg width="24" height="25" viewBox="0 0 24 25" fill="none" xmlns="http://www.w3.org/2000/svg">
<path fill-rule="evenodd" clip-rule="evenodd" d="M18.2368 15.4255C19.0481 14.6931 19.7135 13.9514 20.1878 13.3755C20.576 12.9043 20.77 12.6686 20.77 12.3098C20.77 11.951 20.576 11.7154 20.1878 11.2441C18.7677 9.51995 15.6355 6.30981 11.9998 6.30981C11.1603 6.30981 10.3476 6.48096 9.57671 6.76545L12.1236 9.31232C13.682 9.37559 14.934 10.6276 14.9973 12.186L18.2368 15.4255ZM9.39284 10.8242C9.1427 11.2622 8.99977 11.7693 8.99977 12.3098C8.99977 13.9667 10.3429 15.3098 11.9998 15.3098C12.5403 15.3098 13.0474 15.1669 13.4854 14.9167L15.787 17.2183C14.6358 17.8653 13.3526 18.3098 11.9998 18.3098C8.36403 18.3098 5.23183 15.0997 3.81173 13.3755C3.42357 12.9043 3.22949 12.6686 3.22949 12.3098C3.22949 11.951 3.42357 11.7154 3.81174 11.2441C4.48516 10.4265 5.5436 9.27471 6.85818 8.28956L9.39284 10.8242Z" fill="#33363F"/>
<path d="M5 2.30981L21 18.3098" stroke="#33363F" stroke-width="2"/>
</svg>
