<svg width="20" height="18" viewBox="0 0 20 18" fill="none" xmlns="http://www.w3.org/2000/svg">
<path d="M2.45067 10.218L9.40329 16.7493C9.64278 16.9742 9.76253 17.0867 9.90372 17.1144C9.9673 17.1269 10.0327 17.1269 10.0963 17.1144C10.2375 17.0867 10.3572 16.9742 10.5967 16.7493L17.5493 10.218C19.5055 8.38041 19.743 5.35641 18.0978 3.23588L17.7885 2.83716C15.8203 0.300394 11.8696 0.725829 10.4867 3.62347C10.2913 4.03277 9.70868 4.03277 9.51333 3.62347C8.13037 0.725829 4.17972 0.300398 2.21154 2.83716L1.90219 3.23588C0.256947 5.35642 0.494498 8.3804 2.45067 10.218Z" stroke="#F96815"/>
</svg>
