<svg width="24" height="25" viewBox="0 0 24 25" fill="none" xmlns="http://www.w3.org/2000/svg">
<path d="M4.45067 14.218L11.4033 20.7493C11.6428 20.9742 11.7625 21.0867 11.9037 21.1144C11.9673 21.1269 12.0327 21.1269 12.0963 21.1144C12.2375 21.0867 12.3572 20.9742 12.5967 20.7493L19.5493 14.218C21.5055 12.3804 21.743 9.35641 20.0978 7.23588L19.7885 6.83716C17.8203 4.30039 13.8696 4.72583 12.4867 7.62347C12.2913 8.03277 11.7087 8.03277 11.5133 7.62347C10.1304 4.72583 6.17972 4.3004 4.21154 6.83716L3.90219 7.23588C2.25695 9.35642 2.4945 12.3804 4.45067 14.218Z" fill="#110402"/>
</svg>
