<svg width="144" height="25" viewBox="0 0 144 25" fill="none" xmlns="http://www.w3.org/2000/svg">
<path d="M18.6611 3.2604C18.1077 3.2604 17.5618 3.31986 17.0324 3.43751C15.8426 2.4182 14.2172 1.84106 12.5 1.84106C10.7829 1.84106 9.15743 2.4182 7.96763 3.43751C7.43811 3.31986 6.89236 3.2604 6.33894 3.2604C2.84361 3.2604 0 5.64024 0 8.56548C0 10.6481 1.46768 12.5347 3.70232 13.3909V22.7785H7.72957V13.3882H9.21582V22.7786H11.7569V13.8028H13.2431V22.7786H15.7842V13.3882H17.2704V22.7786H21.2977V13.391C23.5323 12.5347 25 10.6481 25 8.56552C25.0001 5.64024 22.1564 3.2604 18.6611 3.2604Z" fill="black"/>
<path d="M40.2759 19.3098V13.5898L41.0159 15.5498L34.8559 5.30981H38.2959L43.0159 13.1698H41.0359L45.7759 5.30981H48.9559L42.7959 15.5498L43.5159 13.5898V19.3098H40.2759ZM54.3284 19.4698C53.4351 19.4698 52.6351 19.2965 51.9284 18.9498C51.2351 18.6031 50.6951 18.0765 50.3084 17.3698C49.9218 16.6498 49.7284 15.7365 49.7284 14.6298V8.54981H52.8484V14.1698C52.8484 15.0631 53.0351 15.7231 53.4084 16.1498C53.7951 16.5631 54.3351 16.7698 55.0284 16.7698C55.5084 16.7698 55.9351 16.6698 56.3084 16.4698C56.6818 16.2565 56.9751 15.9365 57.1884 15.5098C57.4018 15.0698 57.5084 14.5231 57.5084 13.8698V8.54981H60.6284V19.3098H57.6684V16.3498L58.2084 17.2098C57.8484 17.9565 57.3151 18.5231 56.6084 18.9098C55.9151 19.2831 55.1551 19.4698 54.3284 19.4698ZM77.6989 8.38981C78.5522 8.38981 79.3056 8.56315 79.9589 8.90981C80.6256 9.24315 81.1456 9.76315 81.5189 10.4698C81.9056 11.1631 82.0989 12.0565 82.0989 13.1498V19.3098H78.9789V13.6298C78.9789 12.7631 78.7989 12.1231 78.4389 11.7098C78.0789 11.2965 77.5722 11.0898 76.9189 11.0898C76.4656 11.0898 76.0589 11.1965 75.6989 11.4098C75.3389 11.6098 75.0589 11.9165 74.8589 12.3298C74.6589 12.7431 74.5589 13.2698 74.5589 13.9098V19.3098H71.4389V13.6298C71.4389 12.7631 71.2589 12.1231 70.8989 11.7098C70.5522 11.2965 70.0522 11.0898 69.3989 11.0898C68.9456 11.0898 68.5389 11.1965 68.1789 11.4098C67.8189 11.6098 67.5389 11.9165 67.3389 12.3298C67.1389 12.7431 67.0389 13.2698 67.0389 13.9098V19.3098H63.9189V8.54981H66.8989V11.4898L66.3389 10.6298C66.7122 9.89648 67.2389 9.34315 67.9189 8.96981C68.6122 8.58315 69.3989 8.38981 70.2789 8.38981C71.2656 8.38981 72.1256 8.64315 72.8589 9.14981C73.6056 9.64315 74.0989 10.4031 74.3389 11.4298L73.2389 11.1298C73.5989 10.2898 74.1722 9.62315 74.9589 9.12981C75.7589 8.63648 76.6722 8.38981 77.6989 8.38981ZM99.0755 8.38981C99.9288 8.38981 100.682 8.56315 101.335 8.90981C102.002 9.24315 102.522 9.76315 102.895 10.4698C103.282 11.1631 103.475 12.0565 103.475 13.1498V19.3098H100.355V13.6298C100.355 12.7631 100.175 12.1231 99.8155 11.7098C99.4555 11.2965 98.9488 11.0898 98.2955 11.0898C97.8421 11.0898 97.4355 11.1965 97.0755 11.4098C96.7155 11.6098 96.4355 11.9165 96.2355 12.3298C96.0355 12.7431 95.9355 13.2698 95.9355 13.9098V19.3098H92.8155V13.6298C92.8155 12.7631 92.6355 12.1231 92.2755 11.7098C91.9288 11.2965 91.4288 11.0898 90.7755 11.0898C90.3221 11.0898 89.9155 11.1965 89.5555 11.4098C89.1955 11.6098 88.9155 11.9165 88.7155 12.3298C88.5155 12.7431 88.4155 13.2698 88.4155 13.9098V19.3098H85.2955V8.54981H88.2755V11.4898L87.7155 10.6298C88.0888 9.89648 88.6155 9.34315 89.2955 8.96981C89.9888 8.58315 90.7755 8.38981 91.6555 8.38981C92.6421 8.38981 93.5021 8.64315 94.2355 9.14981C94.9821 9.64315 95.4755 10.4031 95.7155 11.4298L94.6155 11.1298C94.9755 10.2898 95.5488 9.62315 96.3355 9.12981C97.1355 8.63648 98.0488 8.38981 99.0755 8.38981ZM107.837 23.3498C107.277 23.3498 106.723 23.2631 106.177 23.0898C105.63 22.9165 105.183 22.6765 104.837 22.3698L105.977 20.1498C106.217 20.3631 106.49 20.5298 106.797 20.6498C107.117 20.7698 107.43 20.8298 107.737 20.8298C108.177 20.8298 108.523 20.7231 108.777 20.5098C109.043 20.3098 109.283 19.9698 109.497 19.4898L110.057 18.1698L110.297 17.8298L114.157 8.54981H117.157L112.297 19.9698C111.95 20.8365 111.55 21.5165 111.097 22.0098C110.657 22.5031 110.163 22.8498 109.617 23.0498C109.083 23.2498 108.49 23.3498 107.837 23.3498ZM109.677 19.7298L104.877 8.54981H108.097L111.817 17.5498L109.677 19.7298ZM122.061 19.3098V13.5898L122.801 15.5498L116.641 5.30981H120.081L124.801 13.1698H122.821L127.561 5.30981H130.741L124.581 15.5498L125.301 13.5898V19.3098H122.061ZM136.114 19.4698C135.22 19.4698 134.42 19.2965 133.714 18.9498C133.02 18.6031 132.48 18.0765 132.094 17.3698C131.707 16.6498 131.514 15.7365 131.514 14.6298V8.54981H134.634V14.1698C134.634 15.0631 134.82 15.7231 135.194 16.1498C135.58 16.5631 136.12 16.7698 136.814 16.7698C137.294 16.7698 137.72 16.6698 138.094 16.4698C138.467 16.2565 138.76 15.9365 138.974 15.5098C139.187 15.0698 139.294 14.5231 139.294 13.8698V8.54981H142.414V19.3098H139.454V16.3498L139.994 17.2098C139.634 17.9565 139.1 18.5231 138.394 18.9098C137.7 19.2831 136.94 19.4698 136.114 19.4698Z" fill="black"/>
</svg>
