<svg width="20" height="21" viewBox="0 0 20 21" fill="none" xmlns="http://www.w3.org/2000/svg">
<path d="M15.3141 4.49182C14.6447 4.49182 14.1426 4.99391 14.1426 5.66337C14.1426 6.33283 14.6447 6.83492 15.3141 6.83492C15.9836 6.83492 16.4857 6.33283 16.4857 5.66337C16.4857 4.99391 15.9836 4.49182 15.3141 4.49182Z" fill="#606060"/>
<path d="M10.0417 5.99805C7.28022 5.99805 5.10449 8.25746 5.10449 10.9353C5.10449 13.6131 7.36391 15.8725 10.0417 15.8725C12.7196 15.8725 14.979 13.6131 14.979 10.9353C14.979 8.25746 12.8032 5.99805 10.0417 5.99805ZM10.0417 14.1152C8.28441 14.1152 6.86181 12.6926 6.86181 10.9353C6.86181 9.17796 8.28441 7.75537 10.0417 7.75537C11.7991 7.75537 13.2216 9.17796 13.2216 10.9353C13.2216 12.6926 11.7991 14.1152 10.0417 14.1152Z" fill="#606060"/>
<path d="M14.0586 0.809814H6.10879C2.67782 0.809814 0 3.48764 0 6.83492V14.7847C0 18.132 2.67782 20.8098 6.0251 20.8098H13.9749C17.3222 20.8098 20 18.132 20 14.7847V6.83492C20.0837 3.48764 17.4059 0.809814 14.0586 0.809814ZM18.159 14.8684C18.159 17.1278 16.318 19.0525 13.9749 19.0525H6.0251C3.76569 19.0525 1.841 17.2115 1.841 14.8684V6.9186C1.841 4.65919 3.68201 2.7345 6.0251 2.7345H13.9749C16.2343 2.7345 18.159 4.57551 18.159 6.9186V14.8684Z" fill="#606060"/>
</svg>
