<svg width="50" height="51" viewBox="0 0 50 51" fill="none" xmlns="http://www.w3.org/2000/svg">
<circle cx="25" cy="25.3098" r="25" fill="#EBEBEB"/>
<path d="M17.5 26.8098C17.5 24.9242 17.5 23.9814 18.0858 23.3956C18.6716 22.8098 19.6144 22.8098 21.5 22.8098H28.5C30.3856 22.8098 31.3284 22.8098 31.9142 23.3956C32.5 23.9814 32.5 24.9242 32.5 26.8098V27.8098C32.5 30.6382 32.5 32.0525 31.6213 32.9311C30.7426 33.8098 29.3284 33.8098 26.5 33.8098H23.5C20.6716 33.8098 19.2574 33.8098 18.3787 32.9311C17.5 32.0525 17.5 30.6382 17.5 27.8098V26.8098Z" stroke="#606060"/>
<path d="M29.5 22.8098V21.3098C29.5 18.8245 27.4853 16.8098 25 16.8098V16.8098C22.5147 16.8098 20.5 18.8245 20.5 21.3098V22.8098" stroke="#606060" stroke-linecap="round"/>
</svg>
