<svg width="345" height="155" viewBox="0 0 345 155" fill="none" xmlns="http://www.w3.org/2000/svg">
<path d="M99.7542 111.62V103.31L100.624 105.71L91.5042 90.6196H95.6742L102.994 102.77H100.654L108.034 90.6196H111.874L102.754 105.71L103.654 103.31V111.62H99.7542ZM120.394 111.83C119.034 111.83 117.834 111.58 116.794 111.08C115.754 110.56 114.944 109.78 114.364 108.74C113.784 107.68 113.494 106.35 113.494 104.75V95.5996H117.244V104.24C117.244 105.68 117.564 106.76 118.204 107.48C118.864 108.18 119.794 108.53 120.994 108.53C121.874 108.53 122.634 108.35 123.274 107.99C123.934 107.63 124.444 107.09 124.804 106.37C125.184 105.65 125.374 104.76 125.374 103.7V95.5996H129.124V111.62H125.554V107.3L126.184 108.62C125.644 109.66 124.854 110.46 123.814 111.02C122.774 111.56 121.634 111.83 120.394 111.83ZM154.853 95.4196C156.133 95.4196 157.263 95.6696 158.243 96.1696C159.243 96.6696 160.023 97.4396 160.583 98.4796C161.143 99.4996 161.423 100.82 161.423 102.44V111.62H157.673V102.92C157.673 101.5 157.363 100.44 156.743 99.7396C156.123 99.0396 155.233 98.6896 154.073 98.6896C153.253 98.6896 152.523 98.8696 151.883 99.2296C151.263 99.5896 150.773 100.12 150.413 100.82C150.073 101.52 149.903 102.41 149.903 103.49V111.62H146.153V102.92C146.153 101.5 145.843 100.44 145.223 99.7396C144.603 99.0396 143.713 98.6896 142.553 98.6896C141.733 98.6896 141.003 98.8696 140.363 99.2296C139.743 99.5896 139.253 100.12 138.893 100.82C138.553 101.52 138.383 102.41 138.383 103.49V111.62H134.633V95.5996H138.203V99.8596L137.573 98.5996C138.113 97.5596 138.893 96.7696 139.913 96.2296C140.953 95.6896 142.133 95.4196 143.453 95.4196C144.953 95.4196 146.253 95.7896 147.353 96.5296C148.473 97.2696 149.213 98.3896 149.573 99.8896L148.103 99.3796C148.623 98.1796 149.483 97.2196 150.683 96.4996C151.883 95.7796 153.273 95.4196 154.853 95.4196ZM187.035 95.4196C188.315 95.4196 189.445 95.6696 190.425 96.1696C191.425 96.6696 192.205 97.4396 192.765 98.4796C193.325 99.4996 193.605 100.82 193.605 102.44V111.62H189.855V102.92C189.855 101.5 189.545 100.44 188.925 99.7396C188.305 99.0396 187.415 98.6896 186.255 98.6896C185.435 98.6896 184.705 98.8696 184.065 99.2296C183.445 99.5896 182.955 100.12 182.595 100.82C182.255 101.52 182.085 102.41 182.085 103.49V111.62H178.335V102.92C178.335 101.5 178.025 100.44 177.405 99.7396C176.785 99.0396 175.895 98.6896 174.735 98.6896C173.915 98.6896 173.185 98.8696 172.545 99.2296C171.925 99.5896 171.435 100.12 171.075 100.82C170.735 101.52 170.565 102.41 170.565 103.49V111.62H166.815V95.5996H170.385V99.8596L169.755 98.5996C170.295 97.5596 171.075 96.7696 172.095 96.2296C173.135 95.6896 174.315 95.4196 175.635 95.4196C177.135 95.4196 178.435 95.7896 179.535 96.5296C180.655 97.2696 181.395 98.3896 181.755 99.8896L180.285 99.3796C180.805 98.1796 181.665 97.2196 182.865 96.4996C184.065 95.7796 185.455 95.4196 187.035 95.4196ZM200.025 117.65C199.245 117.65 198.465 117.52 197.685 117.26C196.905 117 196.255 116.64 195.735 116.18L197.235 113.42C197.615 113.76 198.045 114.03 198.525 114.23C199.005 114.43 199.495 114.53 199.995 114.53C200.675 114.53 201.225 114.36 201.645 114.02C202.065 113.68 202.455 113.11 202.815 112.31L203.745 110.21L204.045 109.76L210.105 95.5996H213.705L206.205 112.91C205.705 114.11 205.145 115.06 204.525 115.76C203.925 116.46 203.245 116.95 202.485 117.23C201.745 117.51 200.925 117.65 200.025 117.65ZM203.325 112.19L196.095 95.5996H199.995L205.875 109.43L203.325 112.19ZM221.407 111.62V103.31L222.277 105.71L213.157 90.6196H217.327L224.647 102.77H222.307L229.687 90.6196H233.527L224.407 105.71L225.307 103.31V111.62H221.407ZM242.046 111.83C240.686 111.83 239.486 111.58 238.446 111.08C237.406 110.56 236.596 109.78 236.016 108.74C235.436 107.68 235.146 106.35 235.146 104.75V95.5996H238.896V104.24C238.896 105.68 239.216 106.76 239.856 107.48C240.516 108.18 241.446 108.53 242.646 108.53C243.526 108.53 244.286 108.35 244.926 107.99C245.586 107.63 246.096 107.09 246.456 106.37C246.836 105.65 247.026 104.76 247.026 103.7V95.5996H250.776V111.62H247.206V107.3L247.836 108.62C247.296 109.66 246.506 110.46 245.466 111.02C244.426 111.56 243.286 111.83 242.046 111.83Z" fill="black"/>
<path d="M49.2592 150.62V139.9L49.4992 140.156H45.2272V139.42H54.1072V140.156H49.8352L50.0752 139.9V150.62H49.2592ZM58.7713 150.684C57.9713 150.684 57.2566 150.502 56.6273 150.14C56.0086 149.777 55.5126 149.276 55.1393 148.636C54.7766 147.996 54.5953 147.265 54.5953 146.444C54.5953 145.612 54.7766 144.881 55.1393 144.252C55.5126 143.612 56.0086 143.11 56.6273 142.748C57.2566 142.385 57.9713 142.204 58.7713 142.204C59.5713 142.204 60.286 142.385 60.9153 142.748C61.5446 143.11 62.0406 143.612 62.4033 144.252C62.766 144.881 62.9473 145.612 62.9473 146.444C62.9473 147.265 62.766 147.996 62.4033 148.636C62.0406 149.276 61.5446 149.777 60.9153 150.14C60.286 150.502 59.5713 150.684 58.7713 150.684ZM58.7713 149.964C59.4113 149.964 59.9873 149.82 60.4993 149.532C61.0113 149.233 61.4113 148.817 61.6993 148.284C61.9873 147.75 62.1313 147.137 62.1313 146.444C62.1313 145.74 61.9873 145.126 61.6993 144.604C61.4113 144.07 61.0113 143.66 60.4993 143.372C59.9873 143.073 59.4113 142.924 58.7713 142.924C58.1313 142.924 57.5553 143.073 57.0433 143.372C56.542 143.66 56.142 144.07 55.8433 144.604C55.5553 145.126 55.4113 145.74 55.4113 146.444C55.4113 147.137 55.5553 147.75 55.8433 148.284C56.142 148.817 56.542 149.233 57.0433 149.532C57.5553 149.82 58.1313 149.964 58.7713 149.964ZM70.0807 150.684C69.3447 150.684 68.678 150.513 68.0807 150.172C67.494 149.83 67.0247 149.345 66.6727 148.716C66.3314 148.076 66.1607 147.318 66.1607 146.444C66.1607 145.569 66.3314 144.817 66.6727 144.188C67.0247 143.548 67.494 143.057 68.0807 142.716C68.678 142.374 69.3447 142.204 70.0807 142.204C70.87 142.204 71.574 142.385 72.1927 142.748C72.822 143.1 73.3127 143.596 73.6647 144.236C74.0274 144.876 74.2087 145.612 74.2087 146.444C74.2087 147.276 74.0274 148.012 73.6647 148.652C73.3127 149.292 72.822 149.793 72.1927 150.156C71.574 150.508 70.87 150.684 70.0807 150.684ZM65.8887 153.724V142.268H66.6567V145.004L66.5287 146.46L66.6887 147.916V153.724H65.8887ZM70.0327 149.964C70.6727 149.964 71.2487 149.82 71.7607 149.532C72.2727 149.233 72.6727 148.817 72.9607 148.284C73.2594 147.75 73.4087 147.137 73.4087 146.444C73.4087 145.74 73.2594 145.126 72.9607 144.604C72.6727 144.07 72.2727 143.66 71.7607 143.372C71.2487 143.073 70.6727 142.924 70.0327 142.924C69.3927 142.924 68.8167 143.073 68.3047 143.372C67.8034 143.66 67.4034 144.07 67.1047 144.604C66.8167 145.126 66.6727 145.74 66.6727 146.444C66.6727 147.137 66.8167 147.75 67.1047 148.284C67.4034 148.817 67.8034 149.233 68.3047 149.532C68.8167 149.82 69.3927 149.964 70.0327 149.964ZM78.3377 150.62V142.748L78.5617 142.988H75.0737V142.268H82.4017V142.988H78.9137L79.1377 142.748V150.62H78.3377ZM84.4346 150.62V142.268H85.2346V149.388L91.1866 142.268H91.8906V150.62H91.0906V143.5L85.1386 150.62H84.4346Z" fill="black"/>
<path d="M108.124 153.724V138.748H108.876V153.724H108.124Z" fill="black"/>
<path d="M125.369 150.62V139.42H129.881C131.033 139.42 131.939 139.66 132.601 140.14C133.273 140.62 133.609 141.329 133.609 142.268C133.609 143.196 133.283 143.894 132.633 144.364C131.993 144.833 131.155 145.068 130.121 145.068L130.393 144.748C131.641 144.748 132.585 144.993 133.225 145.484C133.865 145.974 134.185 146.694 134.185 147.644C134.185 148.593 133.854 149.329 133.193 149.852C132.531 150.364 131.529 150.62 130.185 150.62H125.369ZM126.185 149.932H130.201C131.235 149.932 132.019 149.745 132.553 149.372C133.097 148.988 133.369 148.396 133.369 147.596C133.369 146.785 133.097 146.198 132.553 145.836C132.019 145.462 131.235 145.276 130.201 145.276H126.185V149.932ZM126.185 144.604H129.865C130.793 144.604 131.507 144.417 132.009 144.044C132.521 143.66 132.777 143.1 132.777 142.364C132.777 141.617 132.521 141.057 132.009 140.684C131.507 140.3 130.793 140.108 129.865 140.108H126.185V144.604ZM145.417 150.62V142.268H146.217V150.62H145.417ZM140.697 145.308C141.742 145.318 142.531 145.548 143.065 145.996C143.609 146.433 143.881 147.078 143.881 147.932C143.881 148.817 143.593 149.494 143.017 149.964C142.441 150.433 141.609 150.662 140.521 150.652L137.401 150.62V142.268H138.201V145.276L140.697 145.308ZM140.489 150.012C141.342 150.022 141.987 149.852 142.425 149.5C142.862 149.148 143.081 148.625 143.081 147.932C143.081 147.26 142.862 146.758 142.425 146.428C141.998 146.097 141.353 145.926 140.489 145.916L138.201 145.9V149.98L140.489 150.012ZM149.971 150.62V142.268H157.267V150.62H156.467V142.748L156.691 142.988H150.547L150.771 142.748V150.62H149.971ZM164.497 150.684C163.654 150.684 162.907 150.502 162.257 150.14C161.617 149.777 161.11 149.276 160.737 148.636C160.374 147.996 160.193 147.265 160.193 146.444C160.193 145.612 160.363 144.881 160.705 144.252C161.057 143.612 161.537 143.11 162.145 142.748C162.753 142.385 163.435 142.204 164.193 142.204C164.95 142.204 165.627 142.38 166.225 142.732C166.833 143.084 167.307 143.58 167.649 144.22C168.001 144.849 168.177 145.58 168.177 146.412C168.177 146.444 168.171 146.481 168.161 146.524C168.161 146.556 168.161 146.593 168.161 146.636H160.785V146.012H167.729L167.409 146.316C167.419 145.665 167.281 145.084 166.993 144.572C166.715 144.049 166.337 143.644 165.857 143.356C165.377 143.057 164.822 142.908 164.193 142.908C163.574 142.908 163.019 143.057 162.529 143.356C162.049 143.644 161.67 144.049 161.393 144.572C161.115 145.084 160.977 145.67 160.977 146.332V146.476C160.977 147.158 161.126 147.766 161.424 148.3C161.734 148.822 162.155 149.233 162.689 149.532C163.222 149.82 163.83 149.964 164.513 149.964C165.046 149.964 165.542 149.868 166.001 149.676C166.47 149.484 166.865 149.19 167.185 148.796L167.649 149.324C167.286 149.772 166.827 150.113 166.273 150.348C165.729 150.572 165.137 150.684 164.497 150.684ZM176.391 146.988C175.868 147.222 175.345 147.404 174.822 147.532C174.31 147.649 173.815 147.708 173.334 147.708C172.385 147.708 171.622 147.489 171.046 147.052C170.47 146.604 170.182 145.937 170.182 145.052V142.268H170.982V145.004C170.982 145.676 171.206 146.182 171.654 146.524C172.102 146.865 172.7 147.036 173.446 147.036C173.894 147.036 174.369 146.977 174.871 146.86C175.372 146.742 175.884 146.566 176.406 146.332L176.391 146.988ZM176.311 150.62V142.268H177.11V150.62H176.311ZM187.044 150.62L183.46 146.444L184.132 146.06L188.004 150.62H187.044ZM180.884 150.62V142.268H181.684V150.62H180.884ZM181.428 146.748V146.06H184.052V146.748H181.428ZM184.18 146.524L183.444 146.396L186.868 142.268H187.748L184.18 146.524ZM195.357 150.62V148.716L195.325 148.428V145.292C195.325 144.513 195.112 143.921 194.685 143.516C194.269 143.11 193.656 142.908 192.845 142.908C192.269 142.908 191.73 143.009 191.229 143.212C190.738 143.404 190.317 143.654 189.965 143.964L189.565 143.388C189.981 143.014 190.482 142.726 191.069 142.524C191.656 142.31 192.269 142.204 192.909 142.204C193.944 142.204 194.738 142.465 195.293 142.988C195.848 143.51 196.125 144.289 196.125 145.324V150.62H195.357ZM192.349 150.684C191.73 150.684 191.192 150.588 190.733 150.396C190.285 150.193 189.938 149.91 189.693 149.548C189.458 149.185 189.341 148.769 189.341 148.3C189.341 147.873 189.437 147.489 189.629 147.148C189.832 146.796 190.162 146.513 190.621 146.3C191.08 146.076 191.693 145.964 192.461 145.964H195.533V146.588H192.477C191.613 146.588 191.005 146.748 190.653 147.068C190.312 147.388 190.141 147.788 190.141 148.268C190.141 148.801 190.344 149.228 190.749 149.548C191.154 149.868 191.725 150.028 192.461 150.028C193.165 150.028 193.757 149.868 194.237 149.548C194.728 149.228 195.09 148.764 195.325 148.156L195.549 148.7C195.325 149.308 194.941 149.793 194.397 150.156C193.864 150.508 193.181 150.684 192.349 150.684Z" fill="black"/>
<path d="M212.124 153.724V138.748H212.876V153.724H212.124Z" fill="black"/>
<path d="M236.605 150.22V140.156H230.877L230.781 143.164C230.749 144.049 230.696 144.897 230.621 145.708C230.546 146.518 230.434 147.249 230.285 147.9C230.136 148.54 229.928 149.057 229.661 149.452C229.405 149.846 229.08 150.06 228.685 150.092L227.741 149.884C228.189 149.916 228.552 149.761 228.829 149.42C229.117 149.078 229.341 148.593 229.501 147.964C229.672 147.334 229.794 146.604 229.869 145.772C229.944 144.94 229.997 144.049 230.029 143.1L230.141 139.42H237.421V150.22H236.605ZM227.325 153.18L227.341 149.884H239.149V153.18H238.365V150.62H228.125L228.109 153.18H227.325ZM244.982 150.684C244.139 150.684 243.392 150.502 242.742 150.14C242.102 149.777 241.595 149.276 241.222 148.636C240.859 147.996 240.678 147.265 240.678 146.444C240.678 145.612 240.848 144.881 241.19 144.252C241.542 143.612 242.022 143.11 242.63 142.748C243.238 142.385 243.92 142.204 244.678 142.204C245.435 142.204 246.112 142.38 246.71 142.732C247.318 143.084 247.792 143.58 248.134 144.22C248.486 144.849 248.662 145.58 248.662 146.412C248.662 146.444 248.656 146.481 248.646 146.524C248.646 146.556 248.646 146.593 248.646 146.636H241.27V146.012H248.214L247.894 146.316C247.904 145.665 247.766 145.084 247.478 144.572C247.2 144.049 246.822 143.644 246.342 143.356C245.862 143.057 245.307 142.908 244.678 142.908C244.059 142.908 243.504 143.057 243.014 143.356C242.534 143.644 242.155 144.049 241.878 144.572C241.6 145.084 241.462 145.67 241.462 146.332V146.476C241.462 147.158 241.611 147.766 241.91 148.3C242.219 148.822 242.64 149.233 243.174 149.532C243.707 149.82 244.315 149.964 244.998 149.964C245.531 149.964 246.027 149.868 246.486 149.676C246.955 149.484 247.35 149.19 247.67 148.796L248.134 149.324C247.771 149.772 247.312 150.113 246.758 150.348C246.214 150.572 245.622 150.684 244.982 150.684ZM254.972 150.684C254.161 150.684 253.436 150.502 252.796 150.14C252.166 149.777 251.665 149.276 251.292 148.636C250.929 147.996 250.748 147.265 250.748 146.444C250.748 145.612 250.929 144.876 251.292 144.236C251.665 143.596 252.166 143.1 252.796 142.748C253.436 142.385 254.161 142.204 254.972 142.204C255.644 142.204 256.252 142.332 256.796 142.588C257.35 142.844 257.798 143.228 258.14 143.74L257.548 144.172C257.249 143.745 256.876 143.43 256.428 143.228C255.98 143.025 255.494 142.924 254.972 142.924C254.321 142.924 253.734 143.073 253.212 143.372C252.7 143.66 252.294 144.07 251.996 144.604C251.708 145.126 251.564 145.74 251.564 146.444C251.564 147.148 251.708 147.766 251.996 148.3C252.294 148.822 252.7 149.233 253.212 149.532C253.734 149.82 254.321 149.964 254.972 149.964C255.494 149.964 255.98 149.862 256.428 149.66C256.876 149.457 257.249 149.142 257.548 148.716L258.14 149.148C257.798 149.66 257.35 150.044 256.796 150.3C256.252 150.556 255.644 150.684 254.972 150.684ZM264.137 150.684C263.294 150.684 262.548 150.502 261.897 150.14C261.257 149.777 260.75 149.276 260.377 148.636C260.014 147.996 259.833 147.265 259.833 146.444C259.833 145.612 260.004 144.881 260.345 144.252C260.697 143.612 261.177 143.11 261.785 142.748C262.393 142.385 263.076 142.204 263.833 142.204C264.59 142.204 265.268 142.38 265.865 142.732C266.473 143.084 266.948 143.58 267.289 144.22C267.641 144.849 267.817 145.58 267.817 146.412C267.817 146.444 267.812 146.481 267.801 146.524C267.801 146.556 267.801 146.593 267.801 146.636H260.425V146.012H267.369L267.049 146.316C267.06 145.665 266.921 145.084 266.633 144.572C266.356 144.049 265.977 143.644 265.497 143.356C265.017 143.057 264.462 142.908 263.833 142.908C263.214 142.908 262.66 143.057 262.169 143.356C261.689 143.644 261.31 144.049 261.033 144.572C260.756 145.084 260.617 145.67 260.617 146.332V146.476C260.617 147.158 260.766 147.766 261.065 148.3C261.374 148.822 261.796 149.233 262.329 149.532C262.862 149.82 263.47 149.964 264.153 149.964C264.686 149.964 265.182 149.868 265.641 149.676C266.11 149.484 266.505 149.19 266.825 148.796L267.289 149.324C266.926 149.772 266.468 150.113 265.913 150.348C265.369 150.572 264.777 150.684 264.137 150.684ZM274.959 150.684C274.223 150.684 273.556 150.513 272.959 150.172C272.372 149.83 271.903 149.345 271.551 148.716C271.21 148.076 271.039 147.318 271.039 146.444C271.039 145.569 271.21 144.817 271.551 144.188C271.903 143.548 272.372 143.057 272.959 142.716C273.556 142.374 274.223 142.204 274.959 142.204C275.748 142.204 276.452 142.385 277.071 142.748C277.7 143.1 278.191 143.596 278.543 144.236C278.906 144.876 279.087 145.612 279.087 146.444C279.087 147.276 278.906 148.012 278.543 148.652C278.191 149.292 277.7 149.793 277.071 150.156C276.452 150.508 275.748 150.684 274.959 150.684ZM270.767 153.724V142.268H271.535V145.004L271.407 146.46L271.567 147.916V153.724H270.767ZM274.911 149.964C275.551 149.964 276.127 149.82 276.639 149.532C277.151 149.233 277.551 148.817 277.839 148.284C278.138 147.75 278.287 147.137 278.287 146.444C278.287 145.74 278.138 145.126 277.839 144.604C277.551 144.07 277.151 143.66 276.639 143.372C276.127 143.073 275.551 142.924 274.911 142.924C274.271 142.924 273.695 143.073 273.183 143.372C272.682 143.66 272.282 144.07 271.983 144.604C271.695 145.126 271.551 145.74 271.551 146.444C271.551 147.137 271.695 147.75 271.983 148.284C272.282 148.817 272.682 149.233 273.183 149.532C273.695 149.82 274.271 149.964 274.911 149.964ZM283.216 150.62V142.748L283.44 142.988H279.952V142.268H287.28V142.988H283.792L284.016 142.748V150.62H283.216ZM297.329 150.62V142.268H298.129V150.62H297.329ZM292.609 145.308C293.654 145.318 294.444 145.548 294.977 145.996C295.521 146.433 295.793 147.078 295.793 147.932C295.793 148.817 295.505 149.494 294.929 149.964C294.353 150.433 293.521 150.662 292.433 150.652L289.313 150.62V142.268H290.113V145.276L292.609 145.308ZM292.401 150.012C293.254 150.022 293.9 149.852 294.337 149.5C294.774 149.148 294.993 148.625 294.993 147.932C294.993 147.26 294.774 146.758 294.337 146.428C293.91 146.097 293.265 145.926 292.401 145.916L290.113 145.9V149.98L292.401 150.012Z" fill="black"/>
<path d="M191.716 4.85168C189.945 4.85168 188.198 5.04195 186.504 5.41843C182.696 2.15663 177.495 0.309814 172 0.309814C166.505 0.309814 161.304 2.15663 157.496 5.41843C155.802 5.04195 154.056 4.85168 152.285 4.85168C141.1 4.85168 132 12.4672 132 21.8279C132 28.4923 136.697 34.5294 143.847 37.2693V67.3095H156.735V37.2606H161.491V67.3098H169.622V38.5874H174.378V67.3098H182.509V37.2606H187.265V67.3098H200.153V37.2695C207.303 34.5295 212 28.4925 212 21.8281C212 12.4672 202.901 4.85168 191.716 4.85168Z" fill="black"/>
</svg>
