<svg width="80" height="67" viewBox="0 0 80 67" fill="none" xmlns="http://www.w3.org/2000/svg">
<path d="M59.7155 4.54187C57.9448 4.54187 56.1979 4.73214 54.5037 5.10862C50.6962 1.84682 45.4949 0 40.0001 0C34.5053 0 29.3038 1.84682 25.4964 5.10862C23.8019 4.73214 22.0556 4.54187 20.2846 4.54187C9.09954 4.54187 0 12.1574 0 21.5181C0 28.1825 4.69659 34.2196 11.8474 36.9595V66.9997H24.7346V36.9508H29.4906V67H37.622V38.2775H42.378V67H50.5094V36.9508H55.2654V67H68.1526V36.9597C75.3034 34.2197 80 28.1827 80 21.5183C80.0003 12.1574 70.9006 4.54187 59.7155 4.54187Z" fill="black"/>
</svg>
