<svg width="24" height="25" viewBox="0 0 24 25" fill="none" xmlns="http://www.w3.org/2000/svg">
<path fill-rule="evenodd" clip-rule="evenodd" d="M3 11.8098C3 11.5337 3.22386 11.3098 3.5 11.3098L19.5 11.3098C19.7761 11.3098 20 11.5337 20 11.8098C20 12.086 19.7761 12.3098 19.5 12.3098L3.5 12.3098C3.22386 12.3098 3 12.086 3 11.8098Z" fill="black"/>
<path fill-rule="evenodd" clip-rule="evenodd" d="M15.6464 7.95626C15.8417 7.761 16.1583 7.761 16.3536 7.95626L20.2071 11.8098L16.3536 15.6634C16.1583 15.8586 15.8417 15.8586 15.6464 15.6634C15.4512 15.4681 15.4512 15.1515 15.6464 14.9563L18.7929 11.8098L15.6464 8.66337C15.4512 8.46811 15.4512 8.15152 15.6464 7.95626Z" fill="black"/>
</svg>
