<svg width="24" height="24" viewBox="0 0 24 24" fill="none" xmlns="http://www.w3.org/2000/svg">
<path d="M15.3163 7.73684V6.78948C15.3163 4.69661 13.6196 3 11.5268 3V3C9.43391 3 7.7373 4.69661 7.7373 6.78948V7.73684" stroke="#222222" stroke-width="2" stroke-linecap="round"/>
<path fill-rule="evenodd" clip-rule="evenodd" d="M3.87868 7.66811C3 8.54679 3 9.961 3 12.7894V13C3 16.7712 3 18.6568 4.17157 19.8284C5.34315 21 7.22876 21 11 21H12.0526C15.8239 21 17.7095 21 18.8811 19.8284C20.0526 18.6568 20.0526 16.7712 20.0526 13V12.7894C20.0526 9.961 20.0526 8.54679 19.174 7.66811C18.2953 6.78943 16.8811 6.78943 14.0526 6.78943H9C6.17157 6.78943 4.75736 6.78943 3.87868 7.66811ZM11.5263 14.2632C11.9914 14.2632 12.3684 13.8861 12.3684 13.4211C12.3684 12.956 11.9914 12.5789 11.5263 12.5789C11.0612 12.5789 10.6842 12.956 10.6842 13.4211C10.6842 13.8861 11.0612 14.2632 11.5263 14.2632ZM14.3684 13.4211C14.3684 14.6388 13.6026 15.6776 12.5263 16.0822V18.1579H10.5263V16.0822C9.45003 15.6776 8.68421 14.6388 8.68421 13.4211C8.68421 11.8514 9.95666 10.5789 11.5263 10.5789C13.096 10.5789 14.3684 11.8514 14.3684 13.4211Z" fill="#222222"/>
</svg>
