<svg width="24" height="25" viewBox="0 0 24 25" fill="none" xmlns="http://www.w3.org/2000/svg">
<path d="M4.32698 7.44784L5.21799 7.90183L4.32698 7.44784ZM4.7682 21.0416L4.06109 20.3345H4.06109L4.7682 21.0416ZM18.362 17.4828L18.816 18.3738L18.816 18.3738L18.362 17.4828ZM19.673 16.1718L20.564 16.6258L20.564 16.6258L19.673 16.1718ZM19.673 7.44784L20.564 6.99385L20.564 6.99385L19.673 7.44784ZM18.362 6.13679L18.816 5.24579L18.816 5.24579L18.362 6.13679ZM5.63803 6.13679L6.09202 7.0278L5.63803 6.13679ZM7.70711 18.1027L7 17.3956L7.70711 18.1027ZM5 10.6098C5 9.75324 5.00078 9.17094 5.03755 8.72085C5.07337 8.28244 5.1383 8.05823 5.21799 7.90183L3.43597 6.99385C3.18868 7.47919 3.09012 7.99589 3.04419 8.55799C2.99922 9.10841 3 9.78624 3 10.6098H5ZM5 12.8098V10.6098H3V12.8098H5ZM3 12.8098V17.8098H5V12.8098H3ZM3 17.8098V20.7234H5V17.8098H3ZM3 20.7234C3 22.0152 4.56185 22.6622 5.4753 21.7487L4.06109 20.3345C4.40757 19.988 5 20.2334 5 20.7234H3ZM5.4753 21.7487L8.41421 18.8098L7 17.3956L4.06109 20.3345L5.4753 21.7487ZM15.2 16.8098H8.41421V18.8098H15.2V16.8098ZM17.908 16.5918C17.7516 16.6715 17.5274 16.7364 17.089 16.7723C16.6389 16.809 16.0566 16.8098 15.2 16.8098V18.8098C16.0236 18.8098 16.7014 18.8106 17.2518 18.7656C17.8139 18.7197 18.3306 18.6211 18.816 18.3738L17.908 16.5918ZM18.782 15.7178C18.5903 16.0941 18.2843 16.4001 17.908 16.5918L18.816 18.3738C19.5686 17.9903 20.1805 17.3784 20.564 16.6258L18.782 15.7178ZM19 13.0098C19 13.8664 18.9992 14.4487 18.9624 14.8988C18.9266 15.3372 18.8617 15.5614 18.782 15.7178L20.564 16.6258C20.8113 16.1404 20.9099 15.6237 20.9558 15.0616C21.0008 14.5112 21 13.8334 21 13.0098H19ZM19 10.6098V13.0098H21V10.6098H19ZM18.782 7.90183C18.8617 8.05823 18.9266 8.28244 18.9624 8.72085C18.9992 9.17094 19 9.75323 19 10.6098H21C21 9.78624 21.0008 9.10841 20.9558 8.55799C20.9099 7.99589 20.8113 7.47919 20.564 6.99385L18.782 7.90183ZM17.908 7.0278C18.2843 7.21955 18.5903 7.52551 18.782 7.90183L20.564 6.99385C20.1805 6.2412 19.5686 5.62928 18.816 5.24579L17.908 7.0278ZM15.2 6.80981C16.0566 6.80981 16.6389 6.81059 17.089 6.84737C17.5274 6.88319 17.7516 6.94811 17.908 7.0278L18.816 5.24579C18.3306 4.9985 17.8139 4.89993 17.2518 4.85401C16.7014 4.80904 16.0236 4.80981 15.2 4.80981V6.80981ZM8.8 6.80981H15.2V4.80981H8.8V6.80981ZM6.09202 7.0278C6.24842 6.94811 6.47262 6.88319 6.91104 6.84737C7.36113 6.81059 7.94342 6.80981 8.8 6.80981V4.80981C7.97642 4.80981 7.2986 4.80904 6.74817 4.85401C6.18608 4.89993 5.66937 4.9985 5.18404 5.24579L6.09202 7.0278ZM5.21799 7.90183C5.40973 7.52551 5.71569 7.21955 6.09202 7.0278L5.18404 5.24579C4.43139 5.62928 3.81947 6.2412 3.43597 6.99385L5.21799 7.90183ZM8.41421 18.8098V16.8098C7.88378 16.8098 7.37507 17.0205 7 17.3956L8.41421 18.8098Z" fill="#606060"/>
<path d="M8 9.80981L16 9.80981" stroke="#606060" stroke-width="2" stroke-linecap="round" stroke-linejoin="round"/>
<path d="M8 13.8098L13 13.8098" stroke="#606060" stroke-width="2" stroke-linecap="round" stroke-linejoin="round"/>
</svg>
